<svg xmlns="http://www.w3.org/2000/svg" width="25" height="25" viewBox="0 0 25 25">
  <path id="_290120_account_avatar_man_profile_user_icon" data-name="290120_account_avatar_man_profile_user_icon" d="M15.5,28A12.5,12.5,0,1,1,28,15.5,12.5,12.5,0,0,1,15.5,28Zm6.924-3.571c-.093-.138-.211-.308-.306-.442-.165-.235-.33-.469-.477-.7-.007-.011-.823-1.1-3.76-1.238a1.739,1.739,0,0,1-1.767-1.825l-.019-.556c0-.08-.01.088,0,0v-.6l.6-.6a8.592,8.592,0,0,0,1.426-.871l.08-.055a2.764,2.764,0,0,0,.875-.859l.021-.227a33.326,33.326,0,0,0,.574-3.94c0-2.8-1.363-4.167-4.167-4.167-2.842,0-4.167,1.324-4.167,4.167a32.555,32.555,0,0,0,.573,3.938l.021.21a2.369,2.369,0,0,0,.863.87l.058.037a11.413,11.413,0,0,0,1.461.9l.6.6v.6c.008.082,0-.087,0,0l-.02.556a1.726,1.726,0,0,1-1.716,1.824h0c-2.95.12-3.805,1.236-3.807,1.236-.15.236-.314.47-.48.7-.093.133-.211.3-.305.441a11.26,11.26,0,0,0,13.849,0ZM15.5,4.19A11.3,11.3,0,0,0,7.673,23.651c.227-.336.47-.672.685-1.008,0,0,.994-1.633,4.762-1.786.384,0,.576-.251.576-.635h0c0-.31,0-.556,0-.556,0-.077-.012-.147-.016-.222a10.415,10.415,0,0,1-1.511-.889s-1.429-.879-1.429-1.865a35.809,35.809,0,0,1-.6-4.167c0-2.764,1.182-5.357,5.357-5.357,4.119,0,5.357,2.593,5.357,5.357a36.776,36.776,0,0,1-.6,4.167c0,.959-1.429,1.865-1.429,1.865a8.258,8.258,0,0,1-1.514.92c0,.065-.014.124-.014.191,0,0,0,.246,0,.556h0c0,.383.19.635.574.635,3.824.171,4.762,1.786,4.762,1.786.214.336.457.672.684,1.008A11.3,11.3,0,0,0,15.5,4.19Z" transform="translate(-3 -3)" fill="#f85e60" fill-rule="evenodd"/>
</svg>
