<svg xmlns="http://www.w3.org/2000/svg" width="9.653" height="16.07" viewBox="0 0 9.653 16.07">
  <g id="_3586361_location_map_navigation_pointer_icon" data-name="3586361_location_map_navigation_pointer_icon" transform="translate(-23.642 -4.88)">
    <path id="Path_43711" data-name="Path 43711" d="M29.864,16.593l2.7-4.337a.246.246,0,0,0,.022-.044,4.819,4.819,0,1,0-8.214,0,.279.279,0,0,0,.019.039l2.6,4.352c-2.019.285-3.346,1.115-3.346,2.122,0,1.248,2.12,2.224,4.826,2.224s4.826-.977,4.826-2.224C33.295,17.714,31.905,16.866,29.864,16.593ZM24.853,11.97a4.279,4.279,0,1,1,7.245,0,.26.26,0,0,0-.022.045L29.226,16.6c-.043.066-.051.081-.1.167L28.4,17.92l-3.526-5.9A.272.272,0,0,0,24.853,11.97Zm3.616,8.44c-2.526,0-4.287-.888-4.287-1.685,0-.723,1.326-1.4,3.109-1.616l.876,1.466a.27.27,0,0,0,.229.131h0a.27.27,0,0,0,.229-.127l.921-1.481c1.812.2,3.206.895,3.206,1.626C32.755,19.523,30.994,20.41,28.468,20.41Z" fill="#f85e60"/>
    <path id="Path_43712" data-name="Path 43712" d="M44.236,23.681a1.752,1.752,0,1,0-1.752,1.752A1.754,1.754,0,0,0,44.236,23.681Zm-2.965,0a1.213,1.213,0,1,1,1.213,1.213A1.214,1.214,0,0,1,41.271,23.681Z" transform="translate(-14.015 -13.982)" fill="#f85e60"/>
  </g>
</svg>
