<svg xmlns="http://www.w3.org/2000/svg" width="14.327" height="14.342" viewBox="0 0 14.327 14.342">
  <g id="_172517_phone_icon" data-name="172517_phone_icon" transform="translate(0 0.016)">
    <rect id="Rectangle_32975" data-name="Rectangle 32975" width="14.004" height="14.004" fill="none"/>
    <path id="Path_43713" data-name="Path 43713" d="M9.393,10.84s1.163-.666,1.468-.826a.873.873,0,0,1,.809-.084c.289.177,2.718,1.793,2.923,1.936a.692.692,0,0,1,.022.954c-.28.4-1.572,1.987-2.12,1.97s-2.829-.068-7.128-4.369S1.017,3.84,1,3.292,2.568,1.451,2.969,1.171a.7.7,0,0,1,.954.022c.162.224,1.759,2.646,1.935,2.923a.863.863,0,0,1-.084.81c-.16.3-.826,1.468-.826,1.468A14.265,14.265,0,0,0,7,8.782,14.332,14.332,0,0,0,9.393,10.84Z" transform="translate(-0.712 -0.713)" fill="none" stroke="#f85e60" stroke-miterlimit="10" stroke-width="0.5"/>
  </g>
</svg>
