<svg xmlns="http://www.w3.org/2000/svg" width="23.903" height="23.903" viewBox="0 0 23.903 23.903">
  <g id="_1" data-name="1" transform="translate(-54.142 -47.992)">
    <path id="Path_43796" data-name="Path 43796" d="M68.256,71.895a.892.892,0,0,1-.8-.5l-4.192-8.619-8.619-4.192a.892.892,0,0,1,.059-1.63l22.117-8.9a.892.892,0,0,1,1.161,1.161l-8.9,22.118a.892.892,0,0,1-.8.558ZM57.232,57.86l7.087,3.449a.892.892,0,0,1,.412.412l3.449,7.087L75.542,50.49Z" transform="translate(0 0)" fill="#f85e60"/>
    <path id="Path_43797" data-name="Path 43797" d="M204.615,63.005a.892.892,0,0,1-.63-1.523L217.207,48.26a.892.892,0,1,1,1.261,1.262L205.246,62.747A.892.892,0,0,1,204.615,63.005Z" transform="translate(-140.686 -0.006)" fill="#f85e60"/>
  </g>
</svg>
